HIERARCHY
ROOT Hips
{
  OFFSET 5.84602e-005 68.8428 3.50346
  CHANNELS 6 Xposition Yposition Zposition Zrotation Xrotation Yrotation
  JOINT Spine
  {
    OFFSET 0 8.597 -4.6522
    CHANNELS 3 Zrotation Xrotation Yrotation
    JOINT Spine1
    {
      OFFSET 0 7.8454 0.4098
      CHANNELS 3 Zrotation Xrotation Yrotation
      JOINT Spine2
      {
        OFFSET 0 9.7078 -2.1609
        CHANNELS 3 Zrotation Xrotation Yrotation
        JOINT Neck
        {
          OFFSET 0 21.8761 -0.4549
          CHANNELS 3 Zrotation Xrotation Yrotation
          JOINT Head
          {
            OFFSET 0 12.3537 3.3602
            CHANNELS 3 Zrotation Xrotation Yrotation
            End Site
            {
              OFFSET 0.0001 18.9506 0.5657
            }
          }
        }
        JOINT LeftShoulder
        {
          OFFSET 2.2086 21.1115 7.2329
          CHANNELS 3 Zrotation Xrotation Yrotation
          JOINT LeftArm
          {
            OFFSET 13.1193 3.0282 -4.8998
            CHANNELS 3 Zrotation Xrotation Yrotation
            JOINT LeftForeArm
            {
              OFFSET 27.4081 -0.0973053 -0.2375
              CHANNELS 3 Zrotation Xrotation Yrotation
              JOINT LeftHand
              {
                OFFSET 22.8641 0.0662994 -0.1369
                CHANNELS 3 Zrotation Xrotation Yrotation
                JOINT LeftHandIndex1
                {
                  OFFSET 8.8614 0.775009 2.4612
                  CHANNELS 3 Zrotation Xrotation Yrotation
                  JOINT LeftHandIndex2
                  {
                    OFFSET 3.3146 -0.808304 0.5841
                    CHANNELS 3 Zrotation Xrotation Yrotation
                    JOINT LeftHandIndex3
                    {
                      OFFSET 2.2628 -0.552002 0.3989
                      CHANNELS 3 Zrotation Xrotation Yrotation
                      End Site
                      {
                        OFFSET 1.6102 -0.4807 0.2612
                      }
                    }
                  }
                }
                JOINT LeftHandMiddle1
                {
                  OFFSET 8.9937 0.895004 0.2143
                  CHANNELS 3 Zrotation Xrotation Yrotation
                  JOINT LeftHandMiddle2
                  {
                    OFFSET 4.0984 0.0113983 -0.0242
                    CHANNELS 3 Zrotation Xrotation Yrotation
                    JOINT LeftHandMiddle3
                    {
                      OFFSET 2.2716 0.00689697 -0.0138001
                      CHANNELS 3 Zrotation Xrotation Yrotation
                      End Site
                      {
                        OFFSET 2.0404 -0.1441 0.0027
                      }
                    }
                  }
                }
                JOINT LeftHandRing1
                {
                  OFFSET 8.5234 0.597198 -2.0164
                  CHANNELS 3 Zrotation Xrotation Yrotation
                  JOINT LeftHandRing2
                  {
                    OFFSET 3.7188 -0.188293 -0.2328
                    CHANNELS 3 Zrotation Xrotation Yrotation
                    JOINT LeftHandRing3
                    {
                      OFFSET 2.1191 -0.106598 -0.1332
                      CHANNELS 3 Zrotation Xrotation Yrotation
                      End Site
                      {
                        OFFSET 1.8737 -0.2304 -0.0886
                      }
                    }
                  }
                }
                JOINT LeftHandPinky1
                {
                  OFFSET 7.9094 -0.601089 -3.4825
                  CHANNELS 3 Zrotation Xrotation Yrotation
                  JOINT LeftHandPinky2
                  {
                    OFFSET 2.2874 -0.477005 -0.6314
                    CHANNELS 3 Zrotation Xrotation Yrotation
                    JOINT LeftHandPinky3
                    {
                      OFFSET 1.6774 -0.349396 -0.4633
                      CHANNELS 3 Zrotation Xrotation Yrotation
                      End Site
                      {
                        OFFSET 1.4888 -0.4091 -0.3416
                      }
                    }
                  }
                }
                JOINT LeftHandThumb1
                {
                  OFFSET 1.833 -1.3875 1.3896
                  CHANNELS 3 Zrotation Xrotation Yrotation
                  JOINT LeftHandThumb2
                  {
                    OFFSET 3.4129 -1.121 2.5732
                    CHANNELS 3 Zrotation Xrotation Yrotation
                    JOINT LeftHandThumb3
                    {
                      OFFSET 2.2474 -0.804199 1.6192
                      CHANNELS 3 Zrotation Xrotation Yrotation
                      End Site
                      {
                        OFFSET 1.6527 -0.5689 1.1317
                      }
                    }
                  }
                }
              }
            }
          }
        }
        JOINT RightShoulder
        {
          OFFSET -2.2086 21.1115 7.2329
          CHANNELS 3 Zrotation Xrotation Yrotation
          JOINT RightArm
          {
            OFFSET -13.1216 3.0287 -4.9007
            CHANNELS 3 Zrotation Xrotation Yrotation
            JOINT RightForeArm
            {
              OFFSET -27.4081 -0.0973053 -0.2375
              CHANNELS 3 Zrotation Xrotation Yrotation
              JOINT RightHand
              {
                OFFSET -22.8641 0.0664063 -0.1369
                CHANNELS 3 Zrotation Xrotation Yrotation
                JOINT RightHandIndex1
                {
                  OFFSET -8.8614 0.774994 2.4612
                  CHANNELS 3 Zrotation Xrotation Yrotation
                  JOINT RightHandIndex2
                  {
                    OFFSET -3.3146 -0.808304 0.5841
                    CHANNELS 3 Zrotation Xrotation Yrotation
                    JOINT RightHandIndex3
                    {
                      OFFSET -2.2628 -0.552002 0.3989
                      CHANNELS 3 Zrotation Xrotation Yrotation
                      End Site
                      {
                        OFFSET -1.6102 -0.4807 0.2612
                      }
                    }
                  }
                }
                JOINT RightHandMiddle1
                {
                  OFFSET -8.9937 0.894989 0.2143
                  CHANNELS 3 Zrotation Xrotation Yrotation
                  JOINT RightHandMiddle2
                  {
                    OFFSET -4.0984 0.0113983 -0.0242
                    CHANNELS 3 Zrotation Xrotation Yrotation
                    JOINT RightHandMiddle3
                    {
                      OFFSET -2.2716 0.00691223 -0.0138001
                      CHANNELS 3 Zrotation Xrotation Yrotation
                      End Site
                      {
                        OFFSET -2.0404 -0.1441 0.0027
                      }
                    }
                  }
                }
                JOINT RightHandRing1
                {
                  OFFSET -8.5234 0.597198 -2.0164
                  CHANNELS 3 Zrotation Xrotation Yrotation
                  JOINT RightHandRing2
                  {
                    OFFSET -3.7188 -0.188309 -0.2328
                    CHANNELS 3 Zrotation Xrotation Yrotation
                    JOINT RightHandRing3
                    {
                      OFFSET -2.1191 -0.106598 -0.1332
                      CHANNELS 3 Zrotation Xrotation Yrotation
                      End Site
                      {
                        OFFSET -1.8737 -0.2304 -0.0886
                      }
                    }
                  }
                }
                JOINT RightHandPinky1
                {
                  OFFSET -7.9094 -0.601105 -3.4825
                  CHANNELS 3 Zrotation Xrotation Yrotation
                  JOINT RightHandPinky2
                  {
                    OFFSET -2.2874 -0.477005 -0.6314
                    CHANNELS 3 Zrotation Xrotation Yrotation
                    JOINT RightHandPinky3
                    {
                      OFFSET -1.6774 -0.349396 -0.4633
                      CHANNELS 3 Zrotation Xrotation Yrotation
                      End Site
                      {
                        OFFSET -1.4888 -0.4091 -0.3416
                      }
                    }
                  }
                }
                JOINT RightHandThumb1
                {
                  OFFSET -1.833 -1.38751 1.3896
                  CHANNELS 3 Zrotation Xrotation Yrotation
                  JOINT RightHandThumb2
                  {
                    OFFSET -3.41299 -1.12099 2.5732
                    CHANNELS 3 Zrotation Xrotation Yrotation
                    JOINT RightHandThumb3
                    {
                      OFFSET -2.24741 -0.804108 1.6192
                      CHANNELS 3 Zrotation Xrotation Yrotation
                      End Site
                      {
                        OFFSET -1.6527 -0.5689 1.1317
                      }
                    }
                  }
                }
              }
            }
          }
        }
      }
    }
  }
  JOINT RightUpLeg
  {
    OFFSET -9.1966 3.8861 -0.7581
    CHANNELS 3 Zrotation Xrotation Yrotation
    JOINT RightLeg
    {
      OFFSET -0.7359 -41.0265 0
      CHANNELS 3 Zrotation Xrotation Yrotation
      JOINT RightFoot
      {
        OFFSET 0 -40.2855 0
        CHANNELS 3 Zrotation Xrotation Yrotation
        JOINT RightToeBase
        {
          OFFSET 0 -5.6122 11.7359
          CHANNELS 3 Zrotation Xrotation Yrotation
          End Site
          {
            OFFSET 0 0 7.8731
          }
        }
      }
    }
  }
  JOINT LeftUpLeg
  {
    OFFSET 9.1965 3.8864 -0.7581
    CHANNELS 3 Zrotation Xrotation Yrotation
    JOINT LeftLeg
    {
      OFFSET 0.7359 -41.0268 0
      CHANNELS 3 Zrotation Xrotation Yrotation
      JOINT LeftFoot
      {
        OFFSET 0 -40.2855 0
        CHANNELS 3 Zrotation Xrotation Yrotation
        JOINT LeftToeBase
        {
          OFFSET 0 -5.6122 11.7359
          CHANNELS 3 Zrotation Xrotation Yrotation
          End Site
          {
            OFFSET 0 0 7.8731
          }
        }
      }
    }
  }
}
MOTION
Frames:	6
Frame Time:	0.0333333
5.84602e-005 68.8428 3.50346 0 0 -0 0 0 -0 0 0 -0 0 0 -0 0 0 -0 0 0 -0 0 0 -0 0 0 -0 0 0 -0 0 0 -0 0 0 -0 0 0 -0 0 0 -0 0 0 -0 -0.0146107 -8.87603e-005 -2.63497e-007 2.99804e-018 -2.42657e-020 -1.42182e-022 0 0 -0 -0.0187562 -0.001176 5.858e-005 5.06224e-018 3.88251e-019 1.21329e-020 0 0 -0 -0.012269 -0.00324817 0.000675346 -1.74678e-018 3.88251e-019 -0 0 0 -0 0 0 -0 0 0 -0 0 0 -0 0 0 -0 0 0 -0 0 0 -0 0 0 -0 0 0 -0 0 0 -0 0 0 -0 0.0149955 -9.10982e-005 2.64101e-007 -9.69331e-018 1.21329e-020 -4.7394e-023 0 0 -0 0.0189956 -0.00119102 -5.96516e-005 -5.41541e-019 0 2.42657e-020 0 0 -0 0.0122698 -0.00324857 -0.000673756 -2.00796e-019 0 -1.94126e-019 0 0 -0 0 0 -0 0 0 -0 3.39842 1.33031 -0.0637918 -5.65207e-008 0.834868 -0.000436188 -3.39935 -2.16518 -0.0642563 -8.89002e-024 -1.18485e-023 -1.48106e-024 -3.39844 1.35642 0.0640283 -3.18788e-007 0.782166 -0.000588827 3.39931 -2.13858 0.0634662 1.1399e-023 0 -0 
-0.622253 61.6052 3.60647 0 14.9982 -0 -0.608854 -3.57097 -0.315415 -1.24107 -7.1382 -0.67088 -1.24107 -7.1382 -0.67088 1.37413e-005 -0.361732 7.95938e-007 -4.09479e-007 -0.333971 -9.74529e-008 2.24847 16.2019 -1.48777 -52.8985 -1.09386 -14.317 -19.5915 30.308 -72.3014 -8.98072 3.2746 9.77663 -3.40437e-007 2.69371e-007 3.54207e-007 1.99686e-006 1.39154e-007 2.24371e-006 -3.24226e-007 2.56544e-007 3.3734e-007 -3.40437e-007 2.69371e-007 3.54207e-007 -0.0146214 -8.52574e-005 2.09088e-006 -3.24226e-007 2.56501e-007 3.37373e-007 -3.40437e-007 2.69371e-007 3.54207e-007 -0.0187933 -0.00118186 6.18611e-005 -3.24222e-007 2.56489e-007 3.37385e-007 -3.40437e-007 2.69371e-007 3.54207e-007 -0.0122964 -0.00325745 0.000675317 1.92919e-006 4.22943e-006 -5.55156e-007 -3.40437e-007 2.69371e-007 3.54207e-007 1.99686e-006 1.39154e-007 2.24371e-006 -3.24226e-007 2.56544e-007 3.3734e-007 -2.70079 15.4376 1.34574 52.9026 -1.14263 14.4478 19.5248 29.9955 71.5754 10.7566 3.55572 -9.40933 5.13852e-007 4.46734e-007 -5.14598e-007 -3.18055e-015 0 -1.59028e-015 3.85389e-007 3.3505e-007 -3.85949e-007 5.13852e-007 4.46734e-007 -5.14598e-007 0.0150277 -9.06664e-005 3.12715e-007 3.85386e-007 3.35e-007 -3.85993e-007 5.13852e-007 4.46734e-007 -5.14598e-007 0.0190264 -0.00119624 -5.86462e-005 3.85382e-007 3.34987e-007 -3.86008e-007 5.13852e-007 4.46734e-007 -5.14598e-007 0.0122289 -0.00323548 -0.000680334 3.85374e-007 3.35012e-007 -3.85995e-007 5.13852e-007 4.46734e-007 -5.14598e-007 -3.18055e-015 0 -1.59028e-015 3.85389e-007 3.3505e-007 -3.85949e-007 -8.04302 -41.7124 -16.0436 -5.77215 53.7825 3.91029 12.8846 -26.0537 -1.90248 -8.24087e-007 2.57446e-007 5.04154e-006 9.21938 -41.5355 16.1905 5.3051 53.5493 -3.63265 -13.7722 -25.6808 1.68996 -1.75435e-008 -1.05021e-007 -7.21723e-009 
-0.622336 61.6471 4.03714 0 13.5098 -0 -0.612666 -3.01993 -0.307294 -1.24417 -6.03626 -0.648314 -1.24418 -6.03626 -0.648315 1.67892e-005 -0.718537 2.81212e-006 1.205e-006 -0.663488 3.23193e-007 2.51373 15.0409 -1.84294 -52.8986 -1.09385 -14.317 -19.5296 30.0988 -71.8023 -8.90412 2.91198 9.47298 -8.31149e-007 6.6222e-007 8.71001e-007 5.32581e-007 -4.24335e-007 -5.58117e-007 4.0347e-008 -3.21466e-008 -4.22816e-008 -8.31149e-007 6.6222e-007 8.71001e-007 -0.0145835 -9.07977e-005 6.07062e-007 4.0347e-008 -3.21412e-008 -4.22857e-008 -8.31149e-007 6.6222e-007 8.71001e-007 -0.0187454 -0.00117697 6.1712e-005 4.03466e-008 -3.21397e-008 -4.22873e-008 -8.31149e-007 6.6222e-007 8.71001e-007 -0.0122761 -0.00324697 0.000675044 -1.00355e-006 -2.28975e-007 -8.76369e-007 -8.31149e-007 6.6222e-007 8.71001e-007 5.32581e-007 -4.24335e-007 -5.58117e-007 4.0347e-008 -3.21466e-008 -4.22816e-008 -2.94765 14.3079 1.70344 52.9026 -1.14263 14.4478 19.4613 29.7915 71.0964 10.6242 3.19075 -9.10685 8.95059e-007 7.83768e-007 -9.02883e-007 -1.27866e-007 -1.11967e-007 1.28983e-007 -6.36111e-015 1.11319e-014 -3.18055e-015 8.95059e-007 7.83768e-007 -9.02883e-007 0.0149762 -9.07315e-005 2.37889e-006 3.18055e-015 1.59028e-015 -3.18055e-015 8.95059e-007 7.83768e-007 -9.02883e-007 0.0190631 -0.00119605 -6.25245e-005 4.80726e-007 -6.97642e-008 5.76764e-007 8.95059e-007 7.83768e-007 -9.02883e-007 0.012284 -0.00324509 -0.00067102 6.36111e-015 6.36111e-015 -1.90833e-014 8.95059e-007 7.83768e-007 -9.02883e-007 -1.27866e-007 -1.11967e-007 1.28983e-007 -6.36111e-015 1.11319e-014 -3.18055e-015 -8.57743 -39.8018 -16.8442 -5.57685 53.5325 3.76626 12.9277 -25.9843 -0.996411 -8.49041e-007 -8.76956e-008 9.37783e-010 9.85719 -39.5931 17.2112 5.0953 53.2955 -3.47642 -13.8091 -25.5485 0.585187 -2.6217e-008 1.7385e-007 -3.36463e-006 
-0.622371 61.6942 4.46734 0 12.0174 -0 -0.616357 -2.46348 -0.298957 -1.24731 -4.92356 -0.625317 -1.24731 -4.92356 -0.625318 -2.56415e-005 -1.07528 2.04495e-006 -1.52646e-007 -0.993256 -2.26518e-008 2.77065 13.8761 -2.19136 -52.8985 -1.09385 -14.317 -19.4656 29.8901 -71.3037 -8.82897 2.54884 9.16983 -4.16655e-007 3.34319e-007 4.39916e-007 -3.25272e-006 1.93367e-006 9.99008e-007 -6.55604e-007 5.26049e-007 6.92204e-007 -4.16655e-007 3.34319e-007 4.39916e-007 -0.0145788 -9.14904e-005 6.16564e-006 3.87471e-007 7.5607e-007 1.5056e-006 -4.16655e-007 3.34319e-007 4.39916e-007 -0.0187282 -0.00117251 5.74885e-005 -6.55723e-007 5.26037e-007 6.9243e-007 -4.16655e-007 3.34319e-007 4.39916e-007 -0.0122593 -0.00324449 0.000678619 -6.55707e-007 5.2608e-007 6.92412e-007 -4.16655e-007 3.34319e-007 4.39916e-007 -3.25272e-006 1.93367e-006 9.99008e-007 -6.55604e-007 5.26049e-007 6.92204e-007 -3.18649 13.1747 2.05503 52.9026 -1.14263 14.4478 19.3961 29.5879 70.6177 10.4938 2.82494 -8.80517 -2.545e-007 -2.24479e-007 2.58676e-007 1.2725e-007 1.12239e-007 -1.29338e-007 -1.7815e-006 -1.57135e-006 1.81074e-006 -2.545e-007 -2.24479e-007 2.58676e-007 0.0149671 -8.88641e-005 5.32673e-006 -1.78149e-006 -1.57112e-006 1.81094e-006 -2.545e-007 -2.24479e-007 2.58676e-007 0.0189567 -0.00119219 -5.6075e-005 -1.78147e-006 -1.57105e-006 1.81101e-006 -2.545e-007 -2.24479e-007 2.58676e-007 0.0122383 -0.00323917 -0.000673783 -1.78143e-006 -1.57117e-006 1.81095e-006 -2.545e-007 -2.24479e-007 2.58676e-007 1.2725e-007 1.12239e-007 -1.29338e-007 -1.7815e-006 -1.57135e-006 1.81074e-006 -9.06642 -37.8764 -17.6049 -5.38378 53.2825 3.62462 12.97 -25.9142 -0.0899297 4.44532e-008 -9.92797e-008 1.69459e-006 10.437 -37.6331 18.1819 4.88783 53.0414 -3.32265 -13.8436 -25.4152 -0.520038 -2.65668e-008 6.1468e-009 -1.68766e-006 
-0.622366 61.7468 4.89683 0 10.5214 -0 -0.619916 -1.9023 -0.290412 -1.25051 -3.80132 -0.601911 -1.25051 -3.80132 -0.601911 -2.86039e-005 -1.43294 1.31053e-005 -1.19555e-006 -1.32327 -6.17918e-008 3.0195 12.7081 -2.53328 -52.8985 -1.09386 -14.317 -19.3998 29.6817 -70.8058 -8.75673 2.18522 8.86716 6.39466e-008 -5.1677e-008 -6.80427e-008 5.89744e-006 -1.25733e-006 2.45105e-006 4.23646e-007 -3.4236e-007 -4.50783e-007 6.39466e-008 -5.1677e-008 -6.80427e-008 -0.014626 -8.89926e-005 -5.19395e-006 4.23646e-007 -3.42303e-007 -4.50827e-007 6.39466e-008 -5.1677e-008 -6.80427e-008 -0.0187687 -0.00117657 5.75021e-005 4.23641e-007 -3.42287e-007 -4.50843e-007 6.39466e-008 -5.1677e-008 -6.80427e-008 -0.0122637 -0.00324801 0.000674337 4.23631e-007 -3.42315e-007 -4.50832e-007 6.39466e-008 -5.1677e-008 -6.80427e-008 5.89744e-006 -1.25733e-006 2.45105e-006 4.23646e-007 -3.4236e-007 -4.50783e-007 -3.4175 12.0385 2.40077 52.9026 -1.14263 14.4478 19.3289 29.3846 70.1397 10.3653 2.45841 -8.50439 7.59717e-007 6.75008e-007 -7.7827e-007 8.86337e-007 7.87509e-007 -9.07982e-007 -1.2662e-007 -1.12501e-007 1.29712e-007 7.59717e-007 6.75008e-007 -7.7827e-007 0.0150072 -9.46026e-005 -9.17958e-007 -1.26619e-007 -1.12484e-007 1.29726e-007 7.59717e-007 6.75008e-007 -7.7827e-007 0.0189727 -0.00119164 -5.68418e-005 -1.26617e-007 -1.1248e-007 1.29732e-007 7.59717e-007 6.75008e-007 -7.7827e-007 0.0122603 -0.00324627 -0.000679663 -1.26614e-007 -1.12488e-007 1.29727e-007 7.59717e-007 6.75008e-007 -7.7827e-007 8.86337e-007 7.87509e-007 -9.07982e-007 -1.2662e-007 -1.12501e-007 1.29712e-007 -9.51368 -35.9377 -18.3296 -5.19285 53.0324 3.4853 13.0113 -25.8432 0.816825 -8.15353e-007 1.70965e-008 1.12197e-006 10.9636 -35.6579 19.1077 4.68271 52.7873 -3.1714 -13.8755 -25.2811 -1.62553 -9.93923e-016 5.96354e-016 -3.18055e-015 
-0.622306 61.8046 5.32539 0 9.02236 -0 -0.623337 -1.33696 -0.281665 -1.25376 -2.67071 -0.578105 -1.25376 -2.67071 -0.578105 2.27705e-005 -1.79039 1.28462e-005 9.53171e-007 -1.65352 -2.15185e-007 3.26046 11.537 -2.86898 -52.8985 -1.09385 -14.317 -19.3319 29.4738 -70.3085 -8.68591 1.82113 8.56497 4.45413e-007 -3.62555e-007 -4.77747e-007 1.90891e-007 -1.55381e-007 -2.04749e-007 5.88581e-007 -4.79091e-007 -6.31308e-007 4.45413e-007 -3.62555e-007 -4.77747e-007 -0.0145655 -8.16458e-005 -8.30435e-006 5.8858e-007 -4.79011e-007 -6.31369e-007 4.45413e-007 -3.62555e-007 -4.77747e-007 -0.0187598 -0.00117826 5.72886e-005 5.88574e-007 -4.78988e-007 -6.31393e-007 4.45413e-007 -3.62555e-007 -4.77747e-007 -0.0122341 -0.00323832 0.000666109 5.8856e-007 -4.79027e-007 -6.31376e-007 4.45413e-007 -3.62555e-007 -4.77747e-007 1.90891e-007 -1.55381e-007 -2.04749e-007 5.88581e-007 -4.79091e-007 -6.31308e-007 -3.64086 10.8994 2.74089 52.9026 -1.14263 14.4478 19.2599 29.1818 69.6622 10.2387 2.09111 -8.20443 5.03903e-007 4.51009e-007 -5.20405e-007 1.25976e-006 1.12752e-006 -1.30101e-006 5.03903e-007 4.51009e-007 -5.20405e-007 5.03903e-007 4.51009e-007 -5.20405e-007 0.0150391 -9.14192e-005 3.26461e-006 5.03899e-007 4.50941e-007 -5.20465e-007 5.03903e-007 4.51009e-007 -5.20405e-007 0.0189495 -0.00119017 -6.32233e-005 5.03893e-007 4.50924e-007 -5.20485e-007 5.03903e-007 4.51009e-007 -5.20405e-007 0.0122522 -0.00324274 -0.000676569 5.03883e-007 4.50957e-007 -5.20467e-007 5.03903e-007 4.51009e-007 -5.20405e-007 1.25976e-006 1.12752e-006 -1.30101e-006 5.03903e-007 4.51009e-007 -5.20405e-007 -9.92254 -33.9874 -19.0217 -5.00404 52.7821 3.34824 13.0517 -25.7715 1.72375 1.74896e-008 -1.05062e-007 6.71694e-009 11.4411 -33.6693 19.993 4.47982 52.5328 -3.02254 -13.9049 -25.1461 -2.73108 4.3764e-008 2.62643e-007 1.68992e-008 
